:FULLY-SPECIFIED
:FORCE-ALL-JOINTS-BE-3DOF
:DEGREES
1
root -2.95645 16.8291 -36.2757 3.79203 -0.409345 -2.77144
lfemur -18.1857 -3.85478 -7.37129
ltibia 37.6337 0 0
lfoot -17.8071 6.78532 0
ltoes -26.1578 0 0
rfemur -19.1521 0.15077 14.7318
rtibia 40.3652 0 0
rfoot -23.1652 -2.86285 0
rtoes -21.0274 0 0
lowerback 7.02591 2.55716 -1.97249
upperback -3.14202 3.31583 1.27229
thorax -7.43554 1.75645 1.99661
lowerneck -4.68188 -4.04088 -6.84108
upperneck 4.69893 -5.30737 6.47589
head 2.76948 -2.5844 3.14763
lclavicle 1.91563e-15 -9.24349e-15 0
lhumerus -27.0689 -5.33108 89.6453
lradius 25.7364 0 0
lwrist -30.6252 0 0
lhand -28.8405 29.9909 0
lfingers 7.12502 0 0
lthumb -2.19771 59.9594 0
rclavicle 1.91563e-15 -9.24349e-15 0
rhumerus -32.8355 4.71181 -81.727
rradius 32.9783 0 0
rwrist 3.84135 0 0
rhand -24.1523 -25.0894 0
rfingers 7.12502 0 0
rthumb 2.33029 -55.0564 0
2
root -2.95809 16.8272 -36.279 3.75115 -0.459372 -2.76881
lfemur -18.1635 -3.52024 -7.43
ltibia 37.6687 -0 0
lfoot -17.8314 6.8425 -0.000261428
ltoes -25.8688 0 0
rfemur -19.1748 0.00468412 14.7348
rtibia 40.4298 -0 0
rfoot -23.1065 -2.55261 0.00219568
rtoes -20.2395 0 0
lowerback 7.10333 2.54643 -1.95854
upperback -3.11818 3.30189 1.27789
thorax -7.45354 1.74881 1.99406
lowerneck -4.65842 -4.02361 -6.84104
upperneck 4.68925 -5.28548 6.48067
head 2.76032 -2.57376 3.15057
lclavicle 3.91202e-15 -1.45858e-14 0
lhumerus -27.0167 -5.3258 89.6708
lradius 25.7561 -0 0
lwrist -30.5722 0 0
lhand -28.8359 29.9833 -4.8462e-06
lfingers 7.12502 -0 0
lthumb -2.19324 59.9518 -4.66468e-06
rclavicle 3.91202e-15 -1.45858e-14 0
rhumerus -32.766 4.63375 -81.6753
rradius 32.8527 -0 0
rwrist 3.83206 0 0
rhand -24.0567 -25.2178 -0.00147188
rfingers 7.12502 -0 0
rthumb 2.42265 -55.1835 -0.0014072
3
root -2.95973 16.8253 -36.2824 3.72741 -0.505598 -2.76937
lfemur -18.1509 -3.22944 -7.48007
ltibia 37.6906 -0 0
lfoot -17.8489 6.92047 -0.000708277
ltoes -25.662 0 0
rfemur -19.2001 -0.1169 14.7412
rtibia 40.4733 -0 0
rfoot -23.0469 -2.27473 0.00414428
rtoes -19.5465 0 0
lowerback 7.15209 2.53721 -1.94374
upperback -3.09863 3.29053 1.28318
thorax -7.4596 1.7424 1.99126
lowerneck -4.63954 -4.00828 -6.84155
upperneck 4.68247 -5.266 6.4853
head 2.7532 -2.56427 3.1534
lclavicle 3.91202e-15 -1.45858e-14 0
lhumerus -26.9686 -5.32246 89.6921
lradius 25.7766 -0 0
lwrist -30.523 0 0
lhand -28.8309 29.9773 -1.01509e-05
lfingers 7.12502 -0 0
lthumb -2.18841 59.9459 -9.77872e-06
rclavicle 3.91202e-15 -1.45858e-14 0
rhumerus -32.7007 4.5675 -81.6315
rradius 32.7436 -0 0
rwrist 3.80507 0 0
rhand -23.9725 -25.3372 -0.00262163
rfingers 7.12502 -0 0
rthumb 2.50391 -55.3017 -0.00250756
4
root -2.96137 16.8234 -36.2857 3.71823 -0.548382 -2.77261
lfemur -18.1463 -2.97699 -7.52267
ltibia 37.7012 -0 0
lfoot -17.8606 7.01553 -0.00130879
ltoes -25.5253 0 0
rfemur -19.2275 -0.21722 14.7503
rtibia 40.4989 -0 0
rfoot -22.9869 -2.02553 0.00586812
rtoes -18.9371 0 0
lowerback 7.17646 2.52931 -1.9283
upperback -3.08279 3.28139 1.28818
thorax -7.4556 1.73705 1.98826
lowerneck -4.6246 -3.99468 -6.84252
upperneck 4.67818 -5.24866 6.4898
head 2.74783 -2.55579 3.15614
lclavicle 3.91202e-15 -1.45858e-14 0
lhumerus -26.9243 -5.32077 89.7096
lradius 25.7977 -0 0
lwrist -30.4772 0 0
lhand -28.8256 29.9729 -1.58715e-05
lfingers 7.12502 -0 0
lthumb -2.18328 59.9415 -1.53015e-05
rclavicle 3.91202e-15 -1.45858e-14 0
rhumerus -32.6393 4.51154 -81.5945
rradius 32.649 -0 0
rwrist 3.82311 0 0
rhand -23.8985 -25.4482 -0.00351496
rfingers 7.12502 -0 0
rthumb 2.5754 -55.4118 -0.00336357
5
root -2.96301 16.8215 -36.289 3.721 -0.588082 -2.77806
lfemur -18.1483 -2.7575 -7.55894
ltibia 37.6879 -0 0
lfoot -17.8674 7.12397 -0.00203541
ltoes -25.447 0 0
rfemur -19.2565 -0.299513 14.7615
rtibia 40.5097 -0 0
rfoot -22.9269 -1.80137 0.00738674
rtoes -18.3998 0 0
lowerback 7.18075 2.52254 -1.91242
upperback -3.0701 3.27413 1.2929
thorax -7.44337 1.73261 1.98512
lowerneck -4.61299 -3.98258 -6.84385
upperneck 4.67595 -5.23318 6.49416
head 2.74392 -2.54818 3.15878
lclavicle 3.91202e-15 -1.45858e-14 0
lhumerus -26.8832 -5.32043 89.724
lradius 25.8192 -0 0
lwrist -30.4347 0 0
lhand -28.8201 29.9696 -2.19614e-05
lfingers 7.12502 -0 0
lthumb -2.17796 59.9383 -2.11885e-05
rclavicle 3.91202e-15 -1.45858e-14 0
rhumerus -32.5814 4.46436 -81.5633
rradius 32.5668 -0 0
rwrist 3.83843 0 0
rhand -23.8332 -25.5518 -0.00420538
rfingers 7.12502 -0 0
rthumb 2.63846 -55.5145 -0.00402616
6
root -2.96465 16.8196 -36.2924 3.73316 -0.625054 -2.78519
lfemur -18.1555 -2.56559 -7.59
ltibia 37.6967 -0 0
lfoot -17.8703 7.24208 -0.0028617
ltoes -25.415 0 0
rfemur -19.2864 -0.367018 14.7744
rtibia 40.5088 -0 0
rfoot -22.8674 -1.59859 0.00871578
rtoes -17.9234 0 0
lowerback 7.16922 2.51673 -1.89633
upperback -3.05996 3.2684 1.29738
thorax -7.4248 1.72891 1.98189
lowerneck -4.60407 -3.97173 -6.84546
upperneck 4.67535 -5.21927 6.49837
head 2.74119 -2.54133 3.16133
lclavicle 3.91202e-15 -1.45858e-14 0
lhumerus -26.8451 -5.32116 89.7359
lradius 25.8408 -0 0
lwrist -30.3949 0 0
lhand -28.8144 29.9674 -2.83548e-05
lfingers 7.12502 -0 0
lthumb -2.17251 59.9361 -2.73761e-05
rclavicle 3.91202e-15 -1.45858e-14 0
rhumerus -32.5267 4.42443 -81.5369
rradius 32.4948 -0 0
rwrist 3.82965 0 0
rhand -23.7753 -25.6487 -0.00473585
rfingers 7.12502 -0 0
rthumb 2.6944 -55.6107 -0.00453616
7
root -2.96628 16.8177 -36.2957 3.75209 -0.659655 -2.79351
lfemur -18.1664 -2.39586 -7.61693
ltibia 37.674 -0 0
lfoot -17.8703 7.36616 -0.00375995
ltoes -25.4174 0 0
rfemur -19.3168 -0.422975 14.7884
rtibia 40.5128 -0 0
rfoot -22.8088 -1.41352 0.00986609
rtoes -17.4963 0 0
lowerback 7.14617 2.51167 -1.88023
upperback -3.0518 3.26385 1.30164
thorax -7.40173 1.7258 1.97863
lowerneck -4.59723 -3.96193 -6.84727
upperneck 4.67596 -5.20665 6.50243
head 2.73936 -2.5351 3.16378
lclavicle 3.91202e-15 -1.45858e-14 0
lhumerus -26.8095 -5.32266 89.7457
lradius 25.8623 -0 0
lwrist -30.3576 0 0
lhand -28.8088 29.9658 -3.49548e-05
lfingers 7.12502 -0 0
lthumb -2.16703 59.9347 -3.37701e-05
rclavicle 3.91202e-15 -1.45858e-14 0
rhumerus -32.4749 4.39023 -81.5143
rradius 32.4318 -0 0
rwrist 3.86084 0 0
rhand -23.7233 -25.7398 -0.00514019
rfingers 7.12502 -0 0
rthumb 2.74456 -55.7011 -0.00492571
8
root -2.96792 16.8158 -36.299 3.77522 -0.692241 -2.8025
lfemur -18.1795 -2.2429 -7.64083
ltibia 37.671 -0 0
lfoot -17.8685 7.4925 -0.00469944
ltoes -25.4424 0 0
rfemur -19.3471 -0.470623 14.8029
rtibia 40.4843 -0 0
rfoot -22.7516 -1.24251 0.0108433
rtoes -17.1073 0 0
lowerback 7.11587 2.50719 -1.86434
upperback -3.04441 3.26015 1.30987
thorax -7.37601 1.72312 1.97539
lowerneck -4.59184 -3.95293 -6.84917
upperneck 4.67735 -5.19506 6.50634
head 2.74012 -2.52461 3.1687
lclavicle 3.91202e-15 -1.45858e-14 0
lhumerus -26.776 -5.32466 89.7541
lradius 25.8834 -0 0
lwrist -30.3223 0 0
lhand -28.8031 29.9648 -4.16249e-05
lfingers 7.12502 -0 0
lthumb -2.16161 59.9337 -4.0238e-05
rclavicle 3.91202e-15 -1.45858e-14 0
rhumerus -32.4257 4.36023 -81.4944
rradius 32.3747 -0 0
rwrist 3.83973 0 0
rhand -23.676 -25.8258 -0.00544425
rfingers 7.12502 -0 0
rthumb 2.79027 -55.7865 -0.0052194
9
root -2.96956 16.8139 -36.3024 3.79995 -0.723171 -2.81164
lfemur -18.1935 -2.10132 -7.66276
ltibia 37.6552 -0 0
lfoot -17.8658 7.61739 -0.00564523
ltoes -25.478 0 0
rfemur -19.3767 -0.513202 14.8174
rtibia 40.4669 -0 0
rfoot -22.6963 -1.0819 0.0116473
rtoes -16.7448 0 0
lowerback 7.08262 2.50309 -1.84888
upperback -3.03914 3.25692 1.30956
thorax -7.34952 1.7207 1.97222
lowerneck -4.58727 -3.94452 -6.85109
upperneck 4.6791 -5.18419 6.5101
head 2.73725 -2.52396 3.1684
lclavicle 3.91202e-15 -1.45858e-14 0
lhumerus -26.7443 -5.32685 89.7616
lradius 25.9039 -0 0
lwrist -30.2888 0 0
lhand -28.7912 29.9633 -5.58831e-05
lfingers 7.12502 -0 0
lthumb -2.15009 59.9323 -5.40832e-05
rclavicle 3.91202e-15 -1.45858e-14 0
rhumerus -32.3788 4.33291 -81.4763
rradius 32.322 -0 0
rwrist 3.84585 0 0
rhand -23.6319 -25.9076 -0.00566703
rfingers 7.12502 -0 0
rthumb 2.83286 -55.8678 -0.00543522
10
root -2.9712 16.812 -36.3057 3.82369 -0.752804 -2.82043
lfemur -18.207 -1.96572 -7.6838
ltibia 37.6424 -0 0
lfoot -17.8632 7.73713 -0.00655779
ltoes -25.5123 0 0
rfemur -19.4051 -0.553956 14.8313
rtibia 40.4501 -0 0
rfoot -22.6432 -0.928027 0.0122726
rtoes -16.3977 0 0
lowerback 7.05069 2.49917 -1.83405
upperback -3.03348 3.25383 1.31327
thorax -7.32411 1.71839 1.96919
lowerneck -4.5829 -3.93646 -6.85293
upperneck 4.68078 -5.17379 6.51371
head 2.73639 -2.51879 3.17057
lclavicle 3.91202e-15 -1.45858e-14 0
lhumerus -26.7139 -5.32897 89.7687
lradius 25.9235 -0 0
lwrist -30.2567 0 0
lhand -28.7869 29.96 -5.90055e-05
lfingers 7.12502 -0 0
lthumb -2.14591 59.929 -5.71258e-05
rclavicle 3.91202e-15 -1.45858e-14 0
rhumerus -32.3338 4.30674 -81.459
rradius 32.2714 -0 0
rwrist 3.85242 0 0
rhand -23.5897 -25.986 -0.00582144
rfingers 7.12502 -0 0
rthumb 2.87365 -55.9456 -0.00558537
11
root -2.97284 16.8101 -36.309 3.84385 -0.781499 -2.82833
lfemur -18.2186 -1.83069 -7.70499
ltibia 37.6274 -0 0
lfoot -17.8616 7.84801 -0.00739305
ltoes -25.5333 0 0
rfemur -19.4317 -0.596126 14.8441
rtibia 40.4371 -0 0
rfoot -22.5929 -0.777244 0.0127085
rtoes -16.0544 0 0
lowerback 7.02437 2.49523 -1.82008
upperback -3.0275 3.25054 1.31684
thorax -7.30163 1.71602 1.96633
lowerneck -4.5781 -3.92852 -6.8546
upperneck 4.68197 -5.16356 6.51715
head 2.7353 -2.51373 3.17264
lclavicle 3.91202e-15 -1.45858e-14 0
lhumerus -26.6844 -5.33071 89.7761
lradius 25.9421 -0 0
lwrist -30.2257 0 0
lhand -28.7875 29.9625 -6.00295e-05
lfingers 7.12502 -0 0
lthumb -2.14647 59.9315 -5.81154e-05
rclavicle 3.91202e-15 -1.45858e-14 0
rhumerus -32.2905 4.28018 -81.4415
rradius 32.2211 -0 0
rwrist 3.85926 0 0
rhand -23.5479 -26.0618 -0.00591498
rfingers 7.12502 -0 0
rthumb 2.91398 -56.0208 -0.00567689
12
root -2.97448 16.8082 -36.3124 3.85784 -0.809619 -2.83483
lfemur -18.2269 -1.69085 -7.72742
ltibia 37.6194 -0 0
lfoot -17.8622 7.94633 -0.00810329
ltoes -25.5291 0 0
rfemur -19.456 -0.642955 14.8552
rtibia 40.4257 -0 0
rfoot -22.5459 -0.625886 0.0129397
rtoes -15.7037 0 0
lowerback 7.00795 2.49108 -1.80718
upperback -3.02062 3.24669 1.32029
thorax -7.28395 1.71343 1.96372
lowerneck -4.57226 -3.92049 -6.856
upperneck 4.68225 -5.15323 6.52043
head 2.73367 -2.50862 3.17462
lclavicle 3.91202e-15 -1.45858e-14 0
lhumerus -26.6555 -5.3318 89.7844
lradius 25.9593 -0 0
lwrist -30.1954 0 0
lhand -28.7829 29.9611 -6.4743e-05
lfingers 7.12502 -0 0
lthumb -2.14209 59.9302 -6.27037e-05
rclavicle 3.91202e-15 -1.45858e-14 0
rhumerus -32.2485 4.2517 -81.4229
rradius 32.1689 -0 0
rwrist 3.86901 0 0
rhand -23.5052 -26.1357 -0.00595015
rfingers 7.12502 -0 0
rthumb 2.95518 -56.0943 -0.00571204
